<svg width="125" height="25" viewBox="0 0 125 25" fill="none" xmlns="http://www.w3.org/2000/svg">
<path d="M47.0243 14.5769L46.1559 19.3141C44.8352 19.8713 43.418 20.1637 41.9846 20.1748C39.426 20.1748 38.3638 19.097 38.6817 17.3603C38.9996 15.6236 40.7441 14.5924 42.8375 14.6156C43.5507 14.6036 44.2601 14.7218 44.9309 14.9645L45.0162 14.4683C45.21 13.4294 44.6285 12.8091 43.2407 12.8091C42.3329 12.8282 41.4478 13.0964 40.6821 13.5844C40.4497 13.4524 40.2598 13.2568 40.1348 13.0205C40.0098 12.7843 39.9549 12.5172 39.9765 12.2508C41.0607 11.4555 42.369 11.024 43.7136 11.0181C46.0008 11.0181 47.4972 12.0493 47.0243 14.6079M42.6359 18.5931C43.2581 18.5895 43.8767 18.4982 44.4734 18.3217L44.8146 16.4609C44.2091 16.217 43.5598 16.1009 42.9073 16.1198C41.8916 16.1198 41.1317 16.4609 40.9844 17.2828C40.8371 18.1046 41.3644 18.5931 42.6359 18.5931Z" fill="#202020"/>
<path d="M105.756 14.5767L104.864 19.314C103.546 19.8704 102.132 20.1627 100.701 20.1746C98.1345 20.1746 97.0723 19.0969 97.3902 17.3601C97.7081 15.6234 99.4603 14.5922 101.554 14.6154C102.263 14.5962 102.97 14.7065 103.639 14.9411L103.725 14.4449C103.918 13.4059 103.337 12.7857 101.949 12.7857C101.041 12.8048 100.156 13.073 99.3905 13.561C99.1582 13.429 98.9683 13.2333 98.8433 12.9971C98.7183 12.7608 98.6634 12.4938 98.685 12.2274C99.7692 11.4321 101.077 11.0005 102.422 10.9946C104.748 10.9946 106.206 12.0258 105.733 14.5844M101.344 18.5696C101.967 18.5667 102.585 18.4753 103.182 18.2983L103.523 16.4375C102.918 16.1936 102.268 16.0774 101.616 16.0963C100.6 16.0963 99.848 16.4375 99.6929 17.2593C99.5379 18.0812 100.073 18.5696 101.344 18.5696Z" fill="#202020"/>
<path d="M57.0497 15.6001C57.2586 14.3083 57.9184 13.1323 58.9119 12.2807C59.9054 11.4291 61.1685 10.957 62.4771 10.9481C63.4852 10.9066 64.4699 11.2599 65.2217 11.9328C64.9332 12.5596 64.4525 13.0783 63.8494 13.4137C63.636 13.2009 63.3817 13.0334 63.1019 12.9215C62.8221 12.8096 62.5225 12.7554 62.2212 12.7624C61.4583 12.7784 60.728 13.0751 60.1701 13.5958C59.6122 14.1165 59.2659 14.8246 59.1974 15.5846C58.9183 17.0655 59.4688 18.3836 61.2055 18.3836C61.9551 18.3836 62.6813 18.1233 63.2601 17.647C63.5047 17.7955 63.7091 18.0019 63.8551 18.248C64.0011 18.494 64.0844 18.7723 64.0975 19.0581C63.1706 19.7788 62.0307 20.1714 60.8566 20.1746C58.0887 20.1746 56.5535 18.4921 57.0885 15.6001" fill="#202020"/>
<path d="M64.6479 15.5851C64.8683 14.2901 65.5378 13.1141 66.5387 12.2635C67.5397 11.4128 68.8082 10.9418 70.1218 10.9331C72.7967 10.9331 74.3318 12.8327 73.8279 15.5851C73.5959 16.8694 72.9213 18.0318 71.9213 18.8703C70.9213 19.7088 69.6591 20.1705 68.354 20.1751C65.6791 20.1751 64.144 18.291 64.6479 15.5851ZM71.7422 15.5851C72.0524 13.9181 71.308 12.7629 69.7574 12.7629C68.9944 12.7789 68.2642 13.0756 67.7063 13.5963C67.1484 14.117 66.8021 14.8251 66.7336 15.5851C66.4234 17.2288 67.1678 18.3608 68.7262 18.3608C69.4805 18.3442 70.2029 18.0532 70.7581 17.5422C71.3133 17.0313 71.6632 16.3355 71.7422 15.5851Z" fill="#202020"/>
<path d="M82.5659 19.0974C82.8064 18.5025 83.2336 18.0019 83.7832 17.6708C84.4782 18.271 85.3782 18.5794 86.2953 18.5314C87.5203 18.5314 88.0475 18.0739 88.1561 17.4847C88.2646 16.8954 87.8304 16.5698 86.3185 16.3294C84.8066 16.0891 83.4653 15.5541 83.7987 13.701C84.1011 12.0884 85.7448 10.9874 87.939 10.9874C89.0376 10.9201 90.1277 11.2172 91.0403 11.8325C90.8618 12.4289 90.4911 12.9496 89.9859 13.3134C89.2554 12.869 88.414 12.6405 87.5591 12.6543C86.4659 12.6543 85.9231 13.0032 85.8223 13.5537C85.7215 14.1042 86.0472 14.3911 87.4893 14.6314C89.3191 14.9261 90.5906 15.5619 90.2572 17.2831C89.9238 19.0043 88.3344 20.1906 85.9541 20.1906C84.7244 20.2899 83.5057 19.8966 82.5659 19.0974Z" fill="#202020"/>
<path d="M115.719 15.5851C115.94 14.2888 116.61 13.1118 117.613 12.261C118.615 11.4102 119.886 10.94 121.201 10.9331C123.876 10.9331 125.403 12.8327 124.907 15.5851C124.673 16.8687 123.998 18.0302 122.999 18.8685C121.999 19.7068 120.738 20.169 119.433 20.1751C116.758 20.1751 115.223 18.291 115.719 15.5851ZM122.821 15.5851C123.124 13.9181 122.387 12.7629 120.836 12.7629C120.075 12.787 119.348 13.0862 118.791 13.6052C118.234 14.1241 117.883 14.8276 117.805 15.5851C117.502 17.2288 118.247 18.3608 119.805 18.3608C120.559 18.3442 121.282 18.0532 121.837 17.5422C122.392 17.0313 122.742 16.3355 122.821 15.5851Z" fill="#202020"/>
<path d="M114.029 8.70779L113.556 11.2819C113.011 11.0817 112.431 10.9895 111.85 11.0105C110.522 11.0032 109.233 11.4662 108.213 12.3176C107.193 13.169 106.506 14.3539 106.276 15.6625C105.733 18.5855 107.377 20.1982 110.23 20.1982C111.59 20.1815 112.932 19.8804 114.169 19.3144L116.231 8.10303L114.029 8.70779ZM112.3 18.0661C111.733 18.2661 111.133 18.3582 110.532 18.3374C108.982 18.3374 108.075 17.283 108.385 15.5773C108.503 14.8114 108.89 14.1128 109.477 13.6069C110.064 13.101 110.812 12.8209 111.587 12.8171C112.151 12.7735 112.714 12.9063 113.2 13.197L112.3 18.0661Z" fill="#202020"/>
<path d="M97.8862 11.3593H94.6453L95.064 9.10303L92.9086 9.70004L91.5207 17.2285C91.1331 19.3142 92.3503 20.1593 94.2189 20.1593C95.2184 20.152 96.1889 19.8231 96.9868 19.2211C97.0037 18.9497 96.9571 18.6781 96.8508 18.4278C96.7444 18.1775 96.5813 17.9554 96.3743 17.779C95.9314 18.1311 95.3888 18.3346 94.8237 18.3605C93.963 18.3605 93.4203 18.0349 93.6529 16.7556L94.3352 13.0417H97.5761C97.6933 12.7659 97.7766 12.477 97.8242 12.1811C97.8831 11.9114 97.904 11.6348 97.8862 11.3593Z" fill="#202020"/>
<path d="M106.26 20.9657L105.725 23.5476C105.447 23.6731 105.146 23.7391 104.841 23.7414C104.198 23.7414 103.833 23.377 103.973 22.718C104.032 22.4232 104.193 22.1583 104.426 21.9687C104.659 21.7791 104.952 21.6767 105.252 21.679C105.382 21.6707 105.512 21.6919 105.632 21.741L105.795 20.9657C105.949 20.945 106.106 20.945 106.26 20.9657ZM105.314 23.2917L105.547 22.1907C105.437 22.1255 105.31 22.0957 105.182 22.1054C105.008 22.1107 104.84 22.1748 104.706 22.2874C104.573 22.4 104.481 22.5544 104.446 22.7257C104.368 23.1134 104.562 23.3537 104.919 23.3537C105.053 23.3521 105.186 23.3312 105.314 23.2917Z" fill="#202020"/>
<path d="M108.144 22.8342H106.764C106.749 22.9001 106.75 22.9686 106.766 23.0342C106.783 23.0997 106.815 23.1603 106.86 23.2111C106.904 23.2618 106.96 23.3012 107.023 23.326C107.086 23.3508 107.154 23.3603 107.221 23.3536C107.443 23.3466 107.658 23.2767 107.842 23.1521C107.889 23.1941 107.925 23.2473 107.947 23.3069C107.969 23.3664 107.975 23.4305 107.966 23.4932C107.71 23.6685 107.407 23.763 107.097 23.7646C106.971 23.7713 106.844 23.7469 106.73 23.6936C106.615 23.6402 106.515 23.5595 106.438 23.4585C106.362 23.3575 106.311 23.2393 106.291 23.1143C106.27 22.9892 106.281 22.8611 106.322 22.7411C106.371 22.4565 106.517 22.1973 106.734 22.0069C106.951 21.8164 107.227 21.7061 107.516 21.6944C107.628 21.6821 107.742 21.6983 107.847 21.7414C107.951 21.7846 108.043 21.8533 108.114 21.9413C108.185 22.0294 108.233 22.1338 108.253 22.2451C108.273 22.3564 108.265 22.471 108.229 22.5783C108.21 22.673 108.184 22.7662 108.152 22.8574M107.78 22.5473C107.826 22.3147 107.78 22.0821 107.438 22.0743C107.301 22.0794 107.17 22.128 107.062 22.213C106.955 22.2981 106.878 22.4152 106.841 22.5473H107.78Z" fill="#202020"/>
<path d="M108.307 23.4935C108.366 23.3575 108.466 23.2436 108.594 23.1679C108.747 23.3036 108.948 23.3733 109.152 23.3617C109.431 23.3617 109.548 23.2609 109.579 23.1291C109.61 22.9973 109.509 22.9198 109.168 22.8655C108.826 22.8112 108.532 22.6872 108.617 22.2762C108.679 22.08 108.807 21.9115 108.98 21.7997C109.152 21.6879 109.359 21.6398 109.563 21.6637C109.81 21.6496 110.054 21.7148 110.261 21.8498C110.214 21.9859 110.128 22.1048 110.013 22.1909C109.85 22.0894 109.662 22.0357 109.47 22.0359C109.222 22.0359 109.098 22.1212 109.075 22.2452C109.051 22.3693 109.121 22.4313 109.447 22.4856C109.772 22.5398 110.137 22.6949 110.052 23.0826C109.995 23.2931 109.864 23.4759 109.683 23.5972C109.502 23.7184 109.283 23.7697 109.067 23.7416C108.928 23.7537 108.787 23.738 108.654 23.6954C108.521 23.6528 108.398 23.5842 108.292 23.4935" fill="#202020"/>
<path d="M112.719 20.9658L112.184 23.5476C111.903 23.6731 111.6 23.7391 111.292 23.7414C110.656 23.7414 110.292 23.377 110.431 22.718C110.491 22.4232 110.651 22.1583 110.885 21.9687C111.118 21.7791 111.41 21.6767 111.711 21.6791C111.84 21.6716 111.97 21.6928 112.091 21.7411L112.254 20.9658C112.331 20.958 112.409 20.958 112.486 20.9658C112.563 20.9583 112.641 20.9583 112.719 20.9658ZM111.773 23.2918L111.998 22.1908C111.891 22.1246 111.766 22.0947 111.641 22.1055C111.46 22.1018 111.283 22.1619 111.141 22.2752C110.999 22.3886 110.902 22.548 110.866 22.7258C110.788 23.1134 110.982 23.3538 111.331 23.3538C111.468 23.3527 111.603 23.3318 111.734 23.2918" fill="#202020"/>
<path d="M114.602 22.834H113.222C113.206 22.8994 113.205 22.9678 113.221 23.0335C113.236 23.0992 113.267 23.1601 113.312 23.2111C113.356 23.2621 113.412 23.3017 113.474 23.3265C113.537 23.3513 113.605 23.3605 113.672 23.3535C113.894 23.3477 114.109 23.2777 114.292 23.1519C114.34 23.1891 114.378 23.2376 114.402 23.2931C114.427 23.3486 114.437 23.4094 114.432 23.4698C114.176 23.645 113.874 23.7395 113.564 23.7411C113.437 23.7479 113.311 23.7235 113.196 23.6701C113.081 23.6168 112.981 23.5361 112.904 23.4351C112.828 23.3341 112.777 23.2159 112.757 23.0908C112.737 22.9658 112.747 22.8377 112.788 22.7177C112.839 22.4324 112.986 22.1731 113.205 21.9827C113.423 21.7924 113.7 21.6824 113.99 21.671C114.102 21.6587 114.216 21.6749 114.321 21.718C114.425 21.7611 114.517 21.8299 114.588 21.9179C114.659 22.0059 114.707 22.1104 114.727 22.2217C114.747 22.333 114.739 22.4476 114.703 22.5549C114.703 22.6557 114.657 22.7255 114.626 22.834M114.246 22.5239C114.3 22.2913 114.246 22.0587 113.912 22.0509C113.775 22.0535 113.642 22.1011 113.534 22.1866C113.426 22.272 113.349 22.3905 113.315 22.5239H114.246Z" fill="#202020"/>
<path d="M117.27 20.9966L116.711 23.6792C116.634 23.6869 116.556 23.6869 116.479 23.6792C116.404 23.6869 116.329 23.6869 116.254 23.6792L116.696 21.5703L116.176 21.7874C116.134 21.7304 116.103 21.6651 116.087 21.5957C116.071 21.5262 116.07 21.4542 116.083 21.3842L116.936 20.9966H117.107H117.27Z" fill="#202020"/>
<path d="M119.262 22.9351C119.197 23.1767 119.049 23.3873 118.843 23.5294C118.637 23.6714 118.387 23.7356 118.138 23.7104C117.657 23.7104 117.239 23.5321 117.363 22.9971C117.405 22.8354 117.479 22.6835 117.58 22.5504C117.681 22.4174 117.808 22.3057 117.952 22.2218C117.856 22.1596 117.781 22.068 117.741 21.9605C117.7 21.853 117.696 21.7353 117.727 21.6248C117.775 21.3951 117.904 21.1904 118.091 21.048C118.277 20.9057 118.509 20.8352 118.743 20.8495C119.27 20.8495 119.518 21.1286 119.464 21.555C119.387 21.8232 119.209 22.0511 118.968 22.1908C119.085 22.2488 119.179 22.3449 119.233 22.4633C119.288 22.5817 119.301 22.7153 119.27 22.8421M118.813 22.8963C118.867 22.656 118.642 22.5474 118.371 22.4234L118.247 22.3614C118.044 22.48 117.895 22.6713 117.828 22.8963C117.774 23.1832 117.975 23.2763 118.239 23.2763C118.503 23.2763 118.758 23.1832 118.813 22.8963ZM118.177 21.5473C118.13 21.7721 118.317 21.8729 118.549 21.9815L118.65 22.028C118.739 21.9839 118.818 21.922 118.882 21.8459C118.946 21.7699 118.994 21.6814 119.022 21.586C119.069 21.3457 118.906 21.2294 118.665 21.2294C118.56 21.2173 118.453 21.2425 118.364 21.3005C118.275 21.3585 118.209 21.4458 118.177 21.5473Z" fill="#202020"/>
<path d="M119.542 23.4936C119.604 23.3424 119.712 23.2149 119.852 23.1292C119.987 23.2663 120.171 23.3443 120.363 23.3463C120.515 23.3599 120.665 23.3153 120.785 23.2217C120.904 23.128 120.984 22.9924 121.007 22.8423C121.069 22.5477 120.929 22.3693 120.565 22.3693C120.325 22.3693 120.131 22.4701 119.952 22.4701C119.915 22.4816 119.874 22.4816 119.836 22.4701L120.131 21.0513H121.681C121.689 21.126 121.689 21.2014 121.681 21.2761C121.664 21.3469 121.644 21.4168 121.619 21.4855H120.472L120.363 22.0359C120.475 21.994 120.593 21.973 120.712 21.9739C121.356 21.9739 121.604 22.2996 121.488 22.8423C121.437 23.1215 121.284 23.372 121.059 23.5452C120.834 23.7185 120.553 23.8023 120.27 23.7804C120.139 23.7879 120.007 23.7684 119.883 23.7231C119.759 23.6778 119.645 23.6076 119.549 23.5168" fill="#202020"/>
<path d="M121.712 23.4936C121.775 23.3424 121.883 23.2149 122.022 23.1292C122.089 23.1978 122.168 23.2523 122.256 23.2896C122.344 23.3269 122.439 23.3462 122.534 23.3463C122.685 23.3599 122.836 23.3153 122.956 23.2217C123.075 23.128 123.155 22.9924 123.178 22.8423C123.24 22.5477 123.1 22.3693 122.736 22.3693C122.495 22.3693 122.301 22.4701 122.123 22.4701C122.085 22.4826 122.045 22.4826 122.007 22.4701L122.294 21.0513H123.844C123.846 21.2011 123.814 21.3493 123.751 21.4855H122.612L122.495 22.0359C122.61 21.9949 122.73 21.9739 122.852 21.9739C123.495 21.9739 123.744 22.2996 123.627 22.8423C123.576 23.1215 123.424 23.372 123.199 23.5452C122.974 23.7185 122.693 23.8023 122.41 23.7804C122.278 23.7879 122.146 23.7684 122.022 23.7231C121.898 23.6778 121.785 23.6076 121.689 23.5168" fill="#202020"/>
<path d="M83.9305 8.15723H75.6267L76.0454 9.48305C76.0529 9.55263 76.0529 9.62281 76.0454 9.69239C76.0454 9.73115 76.0454 9.76217 76.0454 9.80093L74.1846 19.8803H81.8681C82.0085 19.5709 82.1101 19.2454 82.1705 18.9111C82.2169 18.6131 82.2169 18.3097 82.1705 18.0117H76.6191L77.2084 14.7941H82.062C82.1956 14.4995 82.302 14.1932 82.3799 13.8792C82.4352 13.5723 82.456 13.2603 82.4419 12.9488H77.5573L78.0923 10.0413H83.5196C83.6476 9.74005 83.7412 9.42534 83.7987 9.10313C83.8596 8.79174 83.883 8.47418 83.8685 8.15723" fill="#202020"/>
<path d="M53.0334 10.9716C52.2442 10.9757 51.46 11.0985 50.7074 11.336C50.6511 11.3477 50.5931 11.3477 50.5368 11.336C50.4754 11.3484 50.4121 11.3484 50.3507 11.336L48.8931 10.9019L48.6295 12.344L47.2339 19.9035C47.5661 19.9662 47.9038 19.9948 48.2418 19.9888C48.5978 19.9953 48.9536 19.9667 49.304 19.9035L50.5058 13.3519C51.1317 13.0383 51.8216 12.8737 52.5217 12.8712C53.8552 12.8712 54.5143 13.476 54.2196 15.0732L53.328 19.9035C53.6654 19.9665 54.0083 19.9951 54.3515 19.9888C54.7074 19.9939 55.0631 19.9653 55.4137 19.9035L56.3983 14.5769C56.7627 12.5843 55.8323 10.9716 53.0334 10.9716Z" fill="#202020"/>
<path d="M38.5732 11.2663C38.9531 9.19614 37.7979 8.02539 34.6965 8.02539H34.6268H30.2849L30.7656 9.4365C30.7775 9.51098 30.7775 9.58687 30.7656 9.66135C30.7737 9.71012 30.7737 9.75989 30.7656 9.80866L28.9048 19.888C30.0936 20.1069 31.3015 20.2056 32.5101 20.1826C35.8285 20.1826 37.6738 18.8103 38.0847 16.5773C38.1748 16.2989 38.2087 16.0054 38.1844 15.7138C38.1601 15.4222 38.0781 15.1383 37.9432 14.8787C37.8083 14.619 37.6232 14.3887 37.3986 14.2012C37.174 14.0136 36.9144 13.8725 36.6349 13.7861C37.1504 13.5716 37.6011 13.2264 37.9424 12.7845C38.2836 12.3426 38.5038 11.8193 38.581 11.2663M36.0456 16.5153C35.8053 17.8334 34.8904 18.4226 32.9443 18.4226C32.395 18.4237 31.8462 18.3926 31.3006 18.3296L31.9596 14.763H33.929C35.4796 14.763 36.255 15.3445 36.0379 16.5153M36.5418 11.3051C36.3402 12.3983 35.6269 13.0263 34.084 13.0263H32.2852L32.8823 9.7854C33.456 9.73113 34.0065 9.70787 34.5415 9.70787C36.0921 9.70787 36.7357 10.2971 36.5496 11.3051" fill="#202020"/>
<path d="M25.0749 0.233398H0.969727V24.3385H25.0749V0.233398Z" fill="#202020"/>
<path d="M1.54346 12.3519L9.72323 8.76206V6.16469C12.2899 5.76517 14.6282 4.45847 16.3136 2.48185L24.5011 9.16523V0.807129H1.54346V12.3519Z" fill="#D70032"/>
<path d="M9.73874 19.9343H16.3136V2.48926C14.6289 4.46139 12.2938 5.76511 9.73099 6.16434V8.76171L1.54346 12.3515V14.9179L9.73099 11.3281V8.76171L12.3594 7.61422V10.1573L9.73874 11.3203V13.8324L12.3671 12.6849V15.1892L9.73874 16.3445V13.8324L1.54346 17.4222V19.9343L9.73874 16.3445V19.9343Z" fill="#202020"/>
<path d="M9.73874 13.8329V11.3208L9.73099 11.3286L1.54346 14.9184V17.4304L9.73874 13.8329Z" fill="#EE801D"/>
<path d="M9.73874 16.3447L1.54346 19.9345H9.73874V16.3447Z" fill="#EE801D"/>
<path d="M9.73871 11.3206L12.3593 10.1809V7.64551L9.73096 8.80076V11.3283L9.73871 11.3206Z" fill="#EE801D"/>
<path d="M9.73884 11.3208L9.73096 11.3287L9.73884 11.3208Z" fill="#FF6B00"/>
<path d="M9.73877 13.8326V16.3446L12.3672 15.1894V12.6851L9.73877 13.8326Z" fill="#EE801D"/>
<path d="M16.3212 19.9343H24.501V9.17264L16.3135 2.48926L16.3212 19.9343Z" fill="#EE801D"/>
<path d="M16.3135 19.9343H16.3212L16.3135 2.48926V19.9343Z" fill="#FF6B00"/>
<path d="M16.3213 19.9346H16.3136H9.73874H1.54346V23.757H24.5011V19.9346H16.3213Z" fill="#0257A0"/>
</svg>
