<svg width="12" height="12" viewBox="0 0 12 12" fill="none" xmlns="http://www.w3.org/2000/svg">
<path d="M11.4478 10.2987C11.6004 10.4512 11.6861 10.6582 11.6861 10.8739C11.6861 11.0897 11.6004 11.2966 11.4478 11.4492C11.2953 11.6018 11.0883 11.6875 10.8725 11.6875C10.6568 11.6875 10.4498 11.6018 10.2972 11.4492L6 7.15089L1.70142 11.4479C1.54884 11.6004 1.34189 11.6861 1.12611 11.6861C0.910328 11.6861 0.703383 11.6004 0.550801 11.4479C0.39822 11.2953 0.3125 11.0884 0.3125 10.8726C0.3125 10.6568 0.39822 10.4499 0.550801 10.2973L4.84938 6.00034L0.552155 1.70201C0.399573 1.54944 0.313854 1.34251 0.313854 1.12674C0.313854 0.910969 0.399573 0.704036 0.552155 0.551464C0.704736 0.398891 0.911681 0.313177 1.12746 0.313177C1.34325 0.313177 1.55019 0.398891 1.70277 0.551464L6 4.84979L10.2986 0.550787C10.4512 0.398214 10.6581 0.3125 10.8739 0.3125C11.0897 0.3125 11.2966 0.398214 11.4492 0.550787C11.6018 0.703359 11.6875 0.910292 11.6875 1.12606C11.6875 1.34183 11.6018 1.54877 11.4492 1.70134L7.15062 6.00034L11.4478 10.2987Z" fill="black"/>
</svg>
