<svg width="55" height="56" viewBox="0 0 55 56" fill="none" xmlns="http://www.w3.org/2000/svg">
<path d="M7.14064 53.5626C4.08852 52.9 2.49556 51.0671 1.93736 48.3593C0.796488 43.6082 0 36.0155 0 28C0 19.9845 0.796488 12.3918 1.93736 7.64063C2.49392 4.90679 4.08689 3.10164 7.14064 2.41124C12.104 1.1904 19.4568 0.5 27.5 0.5C35.5433 0.5 42.8961 1.1904 47.8594 2.41124C50.9116 3.10164 52.5045 4.90679 53.0627 7.64063C54.2036 12.3918 55.0001 19.9568 55.0001 28C55.0001 36.0432 54.2036 43.6082 53.0627 48.3593C52.5062 51.0671 50.9132 52.8984 47.8594 53.5626C42.8961 54.8096 35.5433 55.5 27.5 55.5C19.4568 55.5 12.104 54.8096 7.14064 53.5626Z" fill="#FF6200"/>
<path d="M46.7904 28.0013V24.668L39.4023 25.805V28.0013H46.7904Z" fill="white"/>
<path d="M41.596 43.8346C43.2723 43.8346 44.4155 43.2223 45.3199 41.9975L45.3722 43.4892H49.2549V29.668H45.212V37.8173C45.212 39.4956 44.3877 40.5599 43.0319 40.5599C41.676 40.5599 40.9842 39.6544 40.9842 37.9761V29.668H36.9414V38.6425C36.9414 41.8108 38.7503 43.8346 41.596 43.8346Z" fill="white"/>
<path d="M13.5716 32.8494V38.7825C13.5716 42.1492 15.3786 43.8333 18.5787 43.8333C19.7278 43.8333 20.6852 43.6986 21.1512 43.5655V40.4667C20.85 40.5471 20.3032 40.626 19.674 40.626C18.3331 40.626 17.7307 39.9853 17.7307 38.5147V32.8494H21.3429V29.6964H17.7307V25.5L13.5716 26.2213V29.6964H11.4922V32.8494H13.5716Z" fill="white"/>
<path d="M9.85058 29.668H5.74609V43.8346H9.85058V29.668Z" fill="white"/>
<path d="M8.2093 28.834C9.65934 28.834 10.672 27.8005 10.672 26.3339C10.672 24.8675 9.65934 23.834 8.2093 23.834C6.75926 23.834 5.74658 24.8693 5.74658 26.3339C5.74658 27.7987 6.75926 28.834 8.2093 28.834Z" fill="white"/>
<path d="M28.2687 29.6695C26.2255 29.6695 24.5328 29.9812 22.8914 30.5789V33.7499C24.5048 33.1521 26.1165 32.7877 27.6223 32.7877C29.5035 32.7877 30.5531 33.6188 30.5531 35.0748C30.2308 35.0492 29.6936 35.0236 29.1812 35.0236C24.88 35.0236 22.1641 36.7386 22.1641 39.6761C22.1641 42.2236 24.0188 43.8346 26.9496 43.8346C28.5894 43.8346 29.773 43.1842 30.6061 42.0926L30.6606 43.4958H34.4775V35.5686C34.4775 31.7217 32.2458 29.668 28.267 29.668L28.2687 29.6695ZM30.5813 38.5845C30.5813 40.0149 29.5861 41.0026 28.1613 41.0026C26.8984 41.0026 26.1181 40.4576 26.1181 39.3644C26.1181 38.1162 27.3546 37.4657 29.5598 37.4657C29.8821 37.4657 30.3929 37.4928 30.5813 37.5184V38.5845Z" fill="white"/>
</svg>
