<svg width="123" height="23" viewBox="0 0 123 23" fill="none" xmlns="http://www.w3.org/2000/svg">
<mask id="mask0_4651_5531" style="mask-type:luminance" maskUnits="userSpaceOnUse" x="0" y="0" width="123" height="23">
<path d="M0.666016 0.966797H123V22.3998H0.666016V0.966797Z" fill="#FFFFFF"/>
</mask>
<g mask="url(#mask0_4651_5531)">
<path fill-rule="evenodd" clip-rule="evenodd" d="M123 10.5937C123 11.2918 122.915 12.1382 122.788 12.5826C122.238 12.5192 121.688 12.4977 121.032 12.4977C120.461 12.4977 119.89 12.5402 119.318 12.625V21.6807H116.991V11.1015C117.985 10.763 119.657 10.5093 120.969 10.5093C121.688 10.5093 122.492 10.5303 123 10.5937ZM107.385 15.2062H112.632C112.632 13.4714 111.701 12.4557 110.093 12.4557C108.443 12.4557 107.575 13.4075 107.385 15.2062ZM114.853 17.1526H107.427C107.724 19.0357 108.824 19.9459 110.897 19.9459C112.167 19.9459 113.458 19.6708 114.621 19.1415C114.525 19.8506 114.406 20.5563 114.262 21.2572C113.203 21.7441 112.082 21.9344 110.834 21.9344C106.941 21.9344 105.058 19.7762 105.058 16.1584C105.058 13.006 106.518 10.5093 110.22 10.5093C113.542 10.5093 114.981 12.6884 114.981 15.3545C114.981 16.0106 114.939 16.5389 114.854 17.1526M100.847 19.2259V12.7094C100.233 12.5826 99.5987 12.4977 98.985 12.4977C96.679 12.4977 95.5785 13.9368 95.5785 16.3487C95.5785 18.5068 96.4458 20.0303 98.5196 20.0303C99.4504 20.0303 100.213 19.7132 100.847 19.2259ZM103.153 6.87006V21.6807H101.016L100.889 20.3265C100.297 21.3211 99.387 21.9344 97.864 21.9344C95.0706 21.9344 93.209 19.903 93.209 16.3487C93.209 12.625 95.1979 10.5093 99.1118 10.5093C99.7255 10.5093 100.297 10.5727 100.847 10.6786V7.18716C101.567 6.93348 102.392 6.87006 103.153 6.87006ZM91.3465 14.5715V21.6807H89.0195V14.9735C89.0195 13.3021 88.4693 12.4977 86.1418 12.4977C85.5916 12.4977 84.9354 12.5616 84.3008 12.6675V21.6807H81.9738V11.1015C83.4544 10.742 85.0842 10.5093 86.2053 10.5093C90.0982 10.5093 91.3465 12.0109 91.3465 14.5715ZM77.1067 19.2684V12.625C76.6203 12.5402 76.091 12.4977 75.4354 12.4977C73.0235 12.4977 71.902 13.9792 71.902 16.3487C71.902 18.5068 72.7694 20.0303 74.8427 20.0303C75.7525 20.0303 76.4935 19.7342 77.1067 19.2684ZM79.4342 11.1015V21.6807H77.297L77.1701 20.4113C76.5779 21.3421 75.6681 21.9344 74.187 21.9344C71.3937 21.9344 69.5321 19.903 69.5321 16.3487C69.5321 12.625 71.521 10.5093 75.4354 10.5093C76.9584 10.5093 78.2068 10.6786 79.4342 11.1015ZM66.9505 19.9455C67.6276 19.9455 68.2623 19.8186 68.7701 19.6284C68.7067 20.2626 68.6218 20.9826 68.495 21.5958C67.8603 21.85 67.1832 21.9344 66.5271 21.9344C64.2635 21.9344 62.8244 20.8977 62.8244 18.3161V7.20815C63.544 6.97591 64.4328 6.87006 65.1519 6.87006V10.8688H68.8336C68.7916 11.5884 68.7277 12.2445 68.6218 12.8577H65.1524V18.0414C65.1524 19.4166 65.829 19.9455 66.9505 19.9455ZM60.4961 14.5715V21.6807H58.1691V14.9735C58.1691 13.3021 57.6188 12.4977 55.2918 12.4977C54.7416 12.4977 54.0854 12.5616 53.4508 12.6675V21.6807H51.1228V11.1015C52.6039 10.742 54.2333 10.5093 55.3543 10.5093C59.2472 10.5093 60.4956 12.0109 60.4956 14.5715M46.2567 19.2684V12.625C45.7698 12.5402 45.241 12.4977 44.5849 12.4977C42.173 12.4977 41.0515 13.9792 41.0515 16.3487C41.0515 18.5068 41.9189 20.0303 43.9927 20.0303C44.902 20.0303 45.643 19.7342 46.2567 19.2684ZM48.5837 11.1015V21.6807H46.447L46.3201 20.4113C45.7279 21.3421 44.8176 21.9344 43.3365 21.9344C40.5437 21.9344 38.6821 19.903 38.6821 16.3487C38.6821 12.625 40.6705 10.5093 44.5849 10.5093C46.1084 10.5093 47.3568 10.6786 48.5837 11.1015ZM27.4473 21.2148C27.4893 20.3474 27.6161 19.7552 27.8493 19.0781C29.0338 19.6284 30.5573 19.9035 31.7212 19.9035C33.6887 19.9035 34.7887 19.2684 34.7887 18.02C34.7887 16.7931 33.9848 16.2218 31.9959 15.3545L30.9168 14.8891C28.9284 14.0217 27.5741 12.9002 27.5741 10.6571C27.5741 8.24526 29.2455 6.70078 32.673 6.70078C34.0487 6.70078 35.339 6.89104 36.5449 7.31447C36.4815 8.16039 36.3337 8.81652 36.122 9.43021C34.9795 9.00678 33.6252 8.81652 32.652 8.81652C30.8114 8.81652 29.965 9.53606 29.965 10.6571C29.965 11.7577 30.7904 12.3919 32.271 13.027L33.4135 13.5134C36.1005 14.6559 37.222 15.8623 37.222 17.9146C37.222 20.3474 35.3814 22.0192 31.7846 22.0192C30.0499 22.0192 28.6322 21.7651 27.4473 21.2148ZM16.8122 10.784C16.7783 9.99889 16.5554 9.2336 16.1626 8.55304L12.6353 2.44413C12.3703 1.98521 12.1818 1.48625 12.0771 0.966797L11.9302 1.22235C11.5013 1.96528 11.2754 2.80804 11.2754 3.66591C11.2754 4.52378 11.5013 5.36654 11.9302 6.10948L14.7515 10.9966C15.1804 11.7396 15.4062 12.5823 15.4062 13.4402C15.4062 14.298 15.1804 15.1408 14.7515 15.8837L14.6041 16.1388C14.4996 15.6195 14.3112 15.1207 14.0464 14.662L11.4629 10.1875L9.81353 7.33079C9.54869 6.87204 9.36032 6.37322 9.2558 5.85393L9.10844 6.10901C8.68092 6.84939 8.45511 7.68898 8.45356 8.54393C8.452 9.39888 8.67476 10.2393 9.09958 10.9812L11.9302 15.8837C12.3591 16.6267 12.5849 17.4694 12.5849 18.3273C12.5849 19.1852 12.3591 20.0279 11.9302 20.7709L11.7824 21.0264C11.6779 20.507 11.4895 20.008 11.2246 19.5491L7.69733 13.4402C7.23267 12.6349 7.00748 11.7137 7.0482 10.7849C3.27233 11.7712 0.666016 13.8655 0.666016 16.2904C0.666016 19.6643 5.70937 22.3993 11.9302 22.3993C18.151 22.3993 23.1939 19.6643 23.1939 16.2904C23.1939 13.8655 20.5881 11.7698 16.8122 10.783" fill="#0B0B0B"/>
</g>
</svg>
